<svg xmlns="http://www.w3.org/2000/svg" width="20" height="20" viewBox="0 0 20 20">
  <path fill="#97C3B2" d="M10,8.58578644 L3.01479909,1.60058553 C2.6242748,1.21006123 1.99110982,1.21006123 1.60058553,1.60058553 C1.21006123,1.99110982 1.21006123,2.6242748 1.60058553,3.01479909 L8.58578644,10 L1.60058553,16.9852009 C1.21006123,17.3757252 1.21006123,18.0088902 1.60058553,18.3994145 C1.99110982,18.7899388 2.6242748,18.7899388 3.01479909,18.3994145 L10,11.4142136 L16.7807657,18.1949793 C17.17129,18.5855035 17.804455,18.5855035 18.1949793,18.1949793 C18.5855035,17.804455 18.5855035,17.17129 18.1949793,16.7807657 L11.4142136,10 L18.1949793,3.21923431 C18.5855035,2.82871002 18.5855035,2.19554504 18.1949793,1.80502075 C17.804455,1.41449646 17.17129,1.41449646 16.7807657,1.80502075 L10,8.58578644 Z"/>
</svg>
