<svg xmlns="http://www.w3.org/2000/svg" width="280" height="65" viewBox="0 0 151 35">
  <g fill="none" fill-rule="evenodd">
    <g fill="#1D252D">
      <path d="M40.149 21.842c-1.032.996-2.505 1.492-4.417 1.492h-2.638V11.961h2.638c1.034 0 1.922.139 2.669.414.745.273 1.36.661 1.849 1.165.487.502.851 1.11 1.09 1.82.238.71.357 1.501.357 2.372 0 1.746-.514 3.114-1.548 4.11m3.17-11.36c-.908-.774-1.989-1.353-3.242-1.734-1.253-.377-2.615-.567-4.085-.567h-7.228v18.963h7.199c1.472 0 2.834-.195 4.085-.583 1.253-.389 2.334-.975 3.241-1.764.908-.786 1.622-1.761 2.138-2.926.514-1.166.774-2.537.774-4.11 0-1.648-.254-3.079-.76-4.292-.507-1.212-1.215-2.208-2.122-2.987M58.071 21.927c-.134.427-.34.81-.617 1.152a3.03 3.03 0 0 1-1.018.81c-.402.2-.86.297-1.376.297-.517 0-.981-.098-1.39-.298a2.833 2.833 0 0 1-1.019-.81 3.835 3.835 0 0 1-.617-1.151 4.116 4.116 0 0 1-.215-1.321c0-.456.072-.896.215-1.323.144-.427.35-.804.617-1.137a2.906 2.906 0 0 1 1.019-.796c.409-.198.873-.298 1.39-.298.516 0 .974.1 1.376.298.401.2.74.463 1.018.796s.483.71.617 1.137a4.455 4.455 0 0 1 0 2.644m2.18-6.354a6.846 6.846 0 0 0-2.267-1.521c-.879-.371-1.853-.554-2.924-.554-1.07 0-2.052.183-2.938.554-.89.37-1.651.877-2.282 1.521a6.981 6.981 0 0 0-1.476 2.26 7.216 7.216 0 0 0-.531 2.773c0 .984.176 1.907.531 2.77a6.967 6.967 0 0 0 1.476 2.262 6.963 6.963 0 0 0 2.282 1.535c.886.379 1.868.567 2.938.567 1.071 0 2.045-.188 2.924-.567a7.029 7.029 0 0 0 2.268-1.535 6.998 6.998 0 0 0 1.476-2.261c.353-.864.53-1.787.53-2.771a7.25 7.25 0 0 0-.53-2.773 7.013 7.013 0 0 0-1.476-2.26M80.833 13.498c-.86 0-1.687.16-2.48.483a5.67 5.67 0 0 0-2.022 1.363 4.69 4.69 0 0 0-1.42-1.237 4.704 4.704 0 0 0-1.104-.44 5.513 5.513 0 0 0-1.433-.169c-.881 0-1.646.17-2.295.512-.65.34-1.186.767-1.606 1.279l-.556-1.48h-3.545v13.335h4.13v-7.163c0-.854.244-1.554.73-2.106.488-.55 1.124-.823 1.908-.823.706 0 1.237.217 1.59.654.355.436.532 1.05.532 1.846v7.592h3.986v-7.163c0-.854.239-1.554.718-2.106.477-.55 1.118-.823 1.92-.823.709 0 1.238.217 1.593.654.353.436.53 1.05.53 1.846v7.592h4.13V18.9c0-1.67-.456-2.986-1.362-3.954-.91-.965-2.223-1.448-3.944-1.448M92.271 19.211c0-.282.062-.573.187-.867a2.63 2.63 0 0 1 .545-.81c.238-.245.539-.45.903-.61a3.11 3.11 0 0 1 1.261-.241c.48 0 .89.08 1.234.24.345.162.633.366.86.612.23.246.401.515.517.81.115.293.171.584.171.866h-5.678zm7.872-3.567a5.862 5.862 0 0 0-2.08-1.579c-.82-.378-1.776-.567-2.866-.567s-2.066.194-2.926.583a6.647 6.647 0 0 0-2.18 1.55 6.714 6.714 0 0 0-1.362 2.26 7.792 7.792 0 0 0-.473 2.686c0 1.061.169 2.032.502 2.913a6.176 6.176 0 0 0 1.463 2.262c.64.625 1.42 1.113 2.337 1.463.918.352 1.95.527 3.098.527.86 0 1.624-.083 2.293-.242a10.96 10.96 0 0 0 1.736-.556c.487-.208.885-.42 1.191-.638.305-.218.534-.374.69-.47l-1.694-2.586c-.307.227-.794.496-1.463.81-.67.313-1.54.469-2.61.469-1.09 0-1.945-.27-2.568-.81-.62-.54-.94-1.171-.96-1.892h9.58v-.681c0-1.12-.144-2.148-.431-3.086-.287-.937-.712-1.743-1.277-2.416zM111.512 19.27c-1.013-.268-1.818-.503-2.41-.712-.591-.21-.888-.531-.888-.968 0-.302.144-.544.43-.725.286-.178.746-.269 1.376-.269.708 0 1.344.114 1.907.34a9.01 9.01 0 0 1 1.507.77l1.75-2.702a8.594 8.594 0 0 0-2.38-1.123c-.862-.256-1.864-.383-3.013-.383-.803 0-1.554.098-2.252.298-.696.198-1.3.483-1.806.852a4.21 4.21 0 0 0-1.19 1.308 3.355 3.355 0 0 0-.43 1.692c0 .606.12 1.138.359 1.592.239.454.555.843.947 1.166.39.32.84.592 1.348.81.504.219 1.016.394 1.534.526.629.171 1.15.321 1.562.454.411.135.731.262.96.385.231.123.388.255.473.398.088.142.13.298.13.469 0 .434-.201.729-.603.88-.401.153-.908.23-1.519.23-.669 0-1.363-.135-2.08-.4-.717-.266-1.295-.597-1.734-.995l-2.036 2.616c.669.663 1.538 1.155 2.609 1.478 1.07.322 2.21.483 3.412.483.747 0 1.478-.086 2.194-.256a6.41 6.41 0 0 0 1.922-.78 4.183 4.183 0 0 0 1.348-1.323c.334-.531.5-1.166.5-1.904 0-1.1-.308-1.98-.93-2.646-.621-.662-1.62-1.183-2.997-1.562M125.807 23.855c-.306.142-.669.211-1.09.211-.555 0-.96-.173-1.218-.525-.258-.35-.388-.848-.388-1.49v-5.262h4.125v-2.981h-4.125V9.953h-.93a2.617 2.617 0 0 0-2.474 1.76l-.726 2.095h-1.963v2.981h1.963v5.033c0 .833.085 1.592.258 2.273.173.683.46 1.267.861 1.75.402.483.928.861 1.577 1.137.65.275 1.453.411 2.41.411 1.528 0 2.943-.511 4.244-1.535l-1.664-2.501c-.268.19-.553.355-.86.498M146.53 13.802l-3.254 8.657-3.085-8.657h-4.421l5.254 12.88.559.352-1.196 3.168c-.748 1.94-.168 3.935 1.785 4.68l.027.01 8.685-21.09h-4.355zM130.087 11.392v15.75h4.128V7.84h-.573a3.554 3.554 0 0 0-3.555 3.552"/>
    </g>
    <g fill="#7ED321">
      <path fill-opacity=".75" d="M9.489 10.156h.01V4.16c-1.14 0-2.063 1.2-2.063 2.338v3.862c.665-.13 1.35-.203 2.053-.203"/>
      <path d="M18.896.06a4.096 4.096 0 0 0-4.098 4.094v8.886a9.281 9.281 0 0 0-4.657-1.642C4.89 11.045.494 15 .116 20.072h1.259c1.45 0 2.809-.747 3.547-1.994a5.299 5.299 0 0 1 4.496-2.606c2.852-.037 5.293 2.295 5.378 5.144a5.307 5.307 0 0 1-9.873 2.863c-.755-1.276-2.186-1.997-3.67-1.997H.117c.362 4.862 4.415 8.696 9.373 8.696 5.194 0 9.393-4.21 9.394-9.4h.013V.058z"/>
      <path fill-opacity=".8" d="M13.386 10.903V2.121c-1.367 0-2.475 1.384-2.475 2.75v5.391a10.55 10.55 0 0 1 2.475.641"/>
    </g>
  </g>
</svg>
