<svg xmlns="http://www.w3.org/2000/svg" width="20" height="20" viewBox="0 0 20 20">
  <path fill="#97C3B2" d="M19.3805973,0.62 C18.9671188,0.206521739 18.4253793,0 17.8840746,0 C17.3423352,0 16.8005957,0.206956522 16.3871172,0.62 C16.3871172,0.62 16.3579867,0.649130435 16.3179867,0.689130435 C16.3140736,0.692608696 16.3088562,0.693913043 16.305378,0.697826087 L1.00102036,16.0017391 C0.947107282,16.0556522 0.908411605,16.1226087 0.888411592,16.1965217 L0.0149327726,19.4526087 C-0.0255020358,19.6026087 0.01754147,19.7626087 0.12754154,19.8726087 C0.210150289,19.9552174 0.321019925,20 0.434933041,20 C0.47232437,20 0.510150481,19.9952174 0.547541809,19.9852174 L3.80363085,19.1113043 C3.87710916,19.0913043 3.9445005,19.0526087 3.99841358,18.9986957 L19.3023364,3.69521739 C19.307119,3.69043478 19.3084234,3.68434783 19.3127712,3.67913043 C19.3514669,3.64043478 19.379293,3.6126087 19.379293,3.6126087 C20.2066848,2.78608696 20.2066848,1.44608696 19.3805973,0.62 Z M18.7653795,1.23478261 C19.2514668,1.72086957 19.251032,2.51173913 18.7649448,2.99782609 C18.6219012,3.14086957 18.4988576,3.26347826 18.3936402,3.36913043 L16.6305956,1.60608696 C16.8301609,1.40652174 17.0019002,1.23478261 17.0019002,1.23478261 C17.2375525,0.999130435 17.5505962,0.869565217 17.8840746,0.869565217 C18.2166835,0.869565217 18.530162,0.999565217 18.7653795,1.23478261 Z M1.56710768,17.0234783 L2.9766738,18.4326087 L1.05015083,18.9495652 L1.56710768,17.0234783 Z"/>
</svg>
