<svg xmlns="http://www.w3.org/2000/svg" xmlns:xlink="http://www.w3.org/1999/xlink" width="42" height="42" viewBox="0 0 42 42">
    <defs>
        <path id="a" d="M30 37.5c-6.341 0-11.5-5.159-11.5-11.5S23.659 14.5 30 14.5 41.5 19.659 41.5 26 36.341 37.5 30 37.5z"/>
    </defs>
    <g fill="none" fill-rule="evenodd">
        <path fill="#7ED321" fill-rule="nonzero" d="M3 33.5A2.503 2.503 0 0 1 .5 31V11C.5 9.622 1.621 8.5 3 8.5h32c1.379 0 2.5 1.122 2.5 2.5v20c0 1.378-1.121 2.5-2.5 2.5H3z"/>
        <path fill="#44B44E" fill-rule="nonzero" d="M35 9c1.103 0 2 .897 2 2v20c0 1.103-.897 2-2 2H3c-1.103 0-2-.897-2-2V11c0-1.103.897-2 2-2h32zm0-1H3a3 3 0 0 0-3 3v20a3 3 0 0 0 3 3h32a3 3 0 0 0 3-3V11a3 3 0 0 0-3-3z"/>
        <path fill="#44B44E" fill-rule="nonzero" d="M0 13h38v4H0z"/>
        <path fill="#FFF" fill-rule="nonzero" d="M4 19h30v3H4z"/>
        <path fill="#5D6774" d="M13 20h1v1h-1zM15 20h1v1h-1zM17 20h1v1h-1zM19 20h1v1h-1z"/>
        <g fill-rule="evenodd">
            <use fill="#7ED321" xlink:href="#a"/>
            <use fill="#FFF" fill-opacity=".55" xlink:href="#a"/>
        </g>
        <path fill="#44B44E" fill-rule="nonzero" d="M30 15c6.065 0 11 4.935 11 11s-4.935 11-11 11-11-4.935-11-11 4.935-11 11-11zm0-1c-6.627 0-12 5.373-12 12s5.373 12 12 12 12-5.373 12-12-5.373-12-12-12z"/>
        <path fill="#FFF" fill-rule="nonzero" d="M19 26c0 1.413.276 2.759.761 4h20.477a10.955 10.955 0 0 0-1.753-11h-16.97A10.955 10.955 0 0 0 19 26z"/>
        <path d="M35.651 19H24.349A8.98 8.98 0 0 0 21 26c0 1.439.346 2.794.947 4h16.107c.6-1.206.947-2.561.947-4a8.984 8.984 0 0 0-3.35-7z"/>
        <path fill="#5D6774" d="M26.55 22c.033.133.05.3.05.5 0 .192-.017.358-.05.5h-.375c.033.133.05.3.05.5 0 .192-.017.358-.05.5H25.8c.033.133.05.3.05.5 0 .192-.017.358-.05.5h-.375c.033.133.05.3.05.5 0 .192-.017.358-.05.5h-.375c.033.133.05.3.05.5 0 .192-.017.358-.05.5h-.375c.033.133.05.3.05.5 0 .192-.017.358-.05.5h-1a2.203 2.203 0 0 1-.05-.5c0-.2.017-.367.05-.5h.375a2.203 2.203 0 0 1-.05-.5c0-.2.017-.367.05-.5h.375a2.203 2.203 0 0 1-.05-.5c0-.2.017-.367.05-.5h.375a2.203 2.203 0 0 1-.05-.5c0-.2.017-.367.05-.5h.375a2.203 2.203 0 0 1-.05-.5c0-.2.017-.367.05-.5h.375a2.203 2.203 0 0 1-.05-.5c0-.2.017-.367.05-.5h-2.5a2.203 2.203 0 0 1-.05-.5c0-.2.017-.367.05-.5h3.5c.033.133.05.3.05.5 0 .192-.017.358-.05.5zm4.875 2H30.8c.033.133.05.3.05.5 0 .192-.017.358-.05.5h.625c.033.133.05.3.05.5 0 .192-.017.358-.05.5.033.133.05.3.05.5 0 .192-.017.358-.05.5H30.8c.033.133.05.3.05.5 0 .192-.017.358-.05.5h-2a2.203 2.203 0 0 1-.05-.5c0-.2.017-.367.05-.5h-.625a2.203 2.203 0 0 1-.05-.5c0-.2.017-.367.05-.5a2.203 2.203 0 0 1-.05-.5c0-.2.017-.367.05-.5h.625a2.203 2.203 0 0 1-.05-.5c0-.2.017-.367.05-.5h-.625a2.203 2.203 0 0 1-.05-.5c0-.2.017-.367.05-.5a2.203 2.203 0 0 1-.05-.5c0-.2.017-.367.05-.5h.625a2.203 2.203 0 0 1-.05-.5c0-.2.017-.367.05-.5h2c.033.133.05.3.05.5 0 .192-.017.358-.05.5h.625c.033.133.05.3.05.5 0 .192-.017.358-.05.5.033.133.05.3.05.5 0 .192-.017.358-.05.5zm-1.05-.5c0-.2.017-.367.05-.5a2.203 2.203 0 0 1-.05-.5c0-.2.017-.367.05-.5h-1.25c.033.133.05.3.05.5 0 .192-.017.358-.05.5.033.133.05.3.05.5 0 .192-.017.358-.05.5h1.25a2.203 2.203 0 0 1-.05-.5zm0 2c0-.2.017-.367.05-.5h-1.25c.033.133.05.3.05.5 0 .192-.017.358-.05.5.033.133.05.3.05.5 0 .192-.017.358-.05.5h1.25a2.203 2.203 0 0 1-.05-.5c0-.2.017-.367.05-.5a2.203 2.203 0 0 1-.05-.5zm3.612-1.5h1.25c.034.133.05.3.05.5 0 .192-.016.358-.05.5h-1.75a2.203 2.203 0 0 1-.05-.5c0-.2.017-.367.05-.5h-.5a2.203 2.203 0 0 1-.05-.5c0-.2.017-.367.05-.5a2.203 2.203 0 0 1-.05-.5c0-.2.017-.367.05-.5h.75a2.203 2.203 0 0 1-.05-.5c0-.2.017-.367.05-.5h1.5c.034.133.05.3.05.5 0 .192-.016.358-.05.5h-1.25c.034.133.05.3.05.5 0 .192-.016.358-.05.5.034.133.05.3.05.5 0 .192-.016.358-.05.5zm2.675.5c0 .192-.016.358-.05.5.034.133.05.3.05.5 0 .192-.016.358-.05.5h-.375c.034.133.05.3.05.5 0 .192-.016.358-.05.5h-1a2.203 2.203 0 0 1-.05-.5c0-.2.017-.367.05-.5h.375a2.203 2.203 0 0 1-.05-.5c0-.2.017-.367.05-.5a2.203 2.203 0 0 1-.05-.5c0-.2.017-.367.05-.5h-.375a2.203 2.203 0 0 1-.05-.5c0-.2.017-.367.05-.5a2.203 2.203 0 0 1-.05-.5c0-.2.017-.367.05-.5h1c.034.133.05.3.05.5 0 .192-.016.358-.05.5h.375c.034.133.05.3.05.5 0 .192-.016.358-.05.5.034.133.05.3.05.5zM33.488 27h1.75c.034.133.05.3.05.5 0 .192-.016.358-.05.5h-1.75a2.203 2.203 0 0 1-.05-.5c0-.2.017-.367.05-.5z"/>
    </g>
</svg>
