<svg xmlns="http://www.w3.org/2000/svg" width="22" height="22" viewBox="0 0 22 22">
    <path fill="#7ED321" fill-rule="nonzero" d="M14.49 4.5a1.122 1.122 0 0 0-.812.328l-.5.516 3.297 3.312.5-.515a1.16 1.16 0 0 0 0-1.641l-1.657-1.656a1.18 1.18 0 0 0-.828-.344zm-1.875 1.297l-.78.75 3.437 3.437.796-.734-3.453-3.453zm-1.28 1.297l-5.407 5.36a.488.488 0 0 0-.25.312l-1.156 3.922a.488.488 0 0 0 .609.609l3.922-1.156a.488.488 0 0 0 .39-.328l5.329-5.282-1.329-1.328h-.015l-.89-.906-1.204-1.203zm-4.813 6.25l.265.265 1.297.11.063 1.265.328.329-2.11.609-.468-.469.625-2.11z"/>
</svg>
