<svg xmlns="http://www.w3.org/2000/svg" width="53" height="84" viewBox="0 0 53 84">
    <g fill="#7ED321" fill-rule="evenodd">
        <path fill-opacity=".75" d="M26.553 28.246l.027.001V11.565c-3.188 0-5.772 3.338-5.772 6.503v10.74a30.028 30.028 0 0 1 5.745-.562"/>
        <path d="M52.877.164c-6.333 0-11.467 5.099-11.467 11.388v24.713c-3.772-2.591-8.233-4.243-13.032-4.565C13.686 30.716 1.383 41.714.326 55.823h3.52c4.058 0 7.862-2.077 9.927-5.546a14.844 14.844 0 0 1 12.58-7.248c7.982-.104 14.814 6.383 15.05 14.307.25 8.354-6.494 15.203-14.85 15.203a14.845 14.845 0 0 1-12.776-7.242c-2.114-3.547-6.118-5.552-10.268-5.552H.326C1.339 73.265 12.68 83.93 26.552 83.93c14.537 0 26.286-11.709 26.29-26.145h.035V.164z"/>
        <path fill-opacity=".8" d="M37.46 30.324V5.898c-3.826 0-6.926 3.85-6.926 7.649V28.54a29.67 29.67 0 0 1 6.925 1.783"/>
    </g>
</svg>
