<svg xmlns="http://www.w3.org/2000/svg" width="30" height="30" viewBox="0 0 30 30">
    <g fill="none" fill-rule="evenodd">
        <circle cx="15" cy="15" r="15" fill="#7ED321"/>
        <g fill-rule="nonzero">
            <path fill="#FFF" d="M20.495 14.208l-8.316-4.12a.82.82 0 0 0-.793.031.79.79 0 0 0-.386.681v8.25a.79.79 0 0 0 .386.678.831.831 0 0 0 .793.034l8.318-4.125a.795.795 0 0 0 .447-.713.804.804 0 0 0-.45-.716z"/>
            <path fill="#E8EBEF" d="M20.495 14.208l-8.316-4.12 8.318 5.549a.795.795 0 0 0 .447-.713.804.804 0 0 0-.45-.716z"/>
        </g>
    </g>
</svg>
